<svg width="177" height="42" viewBox="0 0 177 42" fill="none" xmlns="http://www.w3.org/2000/svg">
<g clip-path="url(#clip0_2792_729)">
<path fill-rule="evenodd" clip-rule="evenodd" d="M13.7311 1.81109C16.4813 0.560575 19.6657 0 22.4449 0C25.4845 0 28.4084 0.143737 31.4336 0.445585C31.9981 0.50308 32.5627 0.560575 33.1272 0.61807C33.3877 0.646817 33.6048 0.761807 33.7641 0.977413C33.9233 1.17864 33.9812 1.423 33.9233 1.68172C33.9088 1.76797 33.8943 1.85421 33.8798 1.94045L33.8509 2.14168C33.793 2.42916 33.7496 2.73101 33.7062 3.03285L34.2707 1.48049C34.4009 1.12115 34.7339 0.89117 35.1247 0.89117H41.3633C41.8554 0.89117 42.2607 1.29363 42.2607 1.78234V3.20534C42.2607 3.6653 41.9133 4.05339 41.4356 4.09651C40.1329 4.2115 39.1052 5.31828 39.1052 6.62628V34.8419C39.1052 36.1499 40.1184 37.2567 41.4356 37.3717C41.8988 37.4148 42.2607 37.8029 42.2607 38.2628V39.6858C42.2607 40.1745 41.8554 40.577 41.3633 40.577H30.7533C30.377 40.577 30.0441 40.347 29.9138 40.0021C29.8125 39.729 29.8414 39.4415 30.0006 39.1971C29.1756 39.7146 28.3071 40.1458 27.4097 40.4908C24.8332 41.5832 21.9817 42 19.1881 42C15.8589 42 12.4863 41.4682 9.41767 40.117H9.43214C9.41767 40.117 9.41767 40.1027 9.40319 40.1027L9.34529 40.0739C9.33082 40.0739 9.33082 40.0595 9.31635 40.0595L9.2295 40.0164C9.2295 40.0164 9.21502 40.0164 9.21502 40.0021L9.1137 39.9589L9.04133 39.9158L8.96895 39.8727C8.83868 39.8008 8.72288 39.7146 8.63604 39.5852C8.60709 39.5565 8.59261 39.5133 8.56366 39.4846L8.54919 39.4702C8.53471 39.4415 8.52024 39.4127 8.50576 39.384L8.46234 39.3121L8.44787 39.2834C8.44787 39.269 8.44787 39.269 8.43339 39.2546V39.6571C8.43339 39.9014 8.34654 40.117 8.17285 40.2895C7.99915 40.462 7.78203 40.5483 7.53596 40.5483H0.935515C0.443377 40.5483 0.0380859 40.1458 0.0380859 39.6571V38.2341C0.0380859 37.7741 0.385478 37.386 0.863142 37.3429C2.16586 37.2279 3.19356 36.1212 3.19356 34.8131V6.59754C3.19356 5.28953 2.18034 4.18275 0.863142 4.06776C0.399953 4.02464 0.0380859 3.63655 0.0380859 3.17659V1.75359C0.0380859 1.26489 0.443377 0.862423 0.935515 0.862423H12.8482C13.239 0.862423 13.5574 1.0924 13.6877 1.45175C13.7311 1.56674 13.7456 1.6961 13.7456 1.81109H13.7311ZM29.1322 18.1684C29.0164 18.0103 28.9585 17.8234 28.9729 17.6222L29.0308 15.2218C29.0308 13.2669 29.0887 11.1971 28.669 9.27105C28.5098 8.56674 28.1334 7.93429 27.8294 7.30185C27.7571 7.15811 27.7281 7 27.7426 6.85626C27.3228 6.65503 26.9031 6.4538 26.4688 6.31006C26.107 6.1807 25.8754 5.86448 25.8754 5.49076L25.8609 4.62834C25.7596 4.59959 25.6438 4.57084 25.5424 4.54209L25.0793 5.27515C24.8766 5.59138 24.5147 5.74949 24.1384 5.67762C23.5739 5.56263 22.9949 5.49076 22.4159 5.44764C22.0396 5.41889 21.7356 5.17454 21.6198 4.80082L21.3737 3.96715C21.2869 3.96715 21.2145 3.96715 21.1277 3.96715C21.0987 3.96715 21.0698 3.96715 21.0408 3.96715L20.7948 4.80082C20.679 5.16016 20.375 5.40452 19.9986 5.43327C19.4341 5.47639 18.8696 5.54825 18.3196 5.64887C17.9432 5.72074 17.5814 5.56263 17.3932 5.23203L16.9445 4.49897C16.8432 4.52772 16.7274 4.55647 16.6261 4.58522L16.5971 5.44764C16.5826 5.82136 16.351 6.13758 16.0036 6.26694C15.7865 6.35318 15.5405 6.49692 15.3233 6.59754C15.1641 6.68378 14.9759 6.77002 14.8022 6.85626C14.8457 7.07187 14.8312 7.28747 14.7154 7.50308C13.818 9.06982 13.8035 11.0678 14.4838 12.7064C15.3089 14.6756 16.9879 15.9117 19.0867 16.2998C20.7658 16.6016 22.5607 16.6304 24.2687 16.846C25.9767 17.0616 27.6413 17.4353 29.1611 18.2115L29.1322 18.1684ZM10.8651 22.4805C11.4586 23.1704 12.11 23.731 12.7758 24.1047C13.0653 24.2628 13.239 24.5503 13.239 24.8809V33.922C13.239 34.2669 13.0653 34.5544 12.7613 34.7125C12.6889 34.7556 12.6021 34.7844 12.5152 34.7988L12.3271 35.575C12.4284 35.6324 12.5152 35.6899 12.6166 35.7474L13.2535 35.1581C13.5285 34.8994 13.9193 34.8419 14.2667 35.0144C14.7733 35.2587 15.2944 35.4743 15.8299 35.6756C16.1918 35.8049 16.4234 36.1212 16.4234 36.4949L16.4379 37.3573C16.5392 37.386 16.655 37.4148 16.7563 37.4435L17.2195 36.7105C17.4222 36.3943 17.784 36.2361 18.1604 36.308C18.7249 36.423 19.3039 36.4949 19.8829 36.538C20.2592 36.5667 20.5632 36.8111 20.679 37.1848L20.925 38.0185C21.0119 38.0185 21.0842 38.0185 21.1711 38.0185C21.2 38.0185 21.229 38.0185 21.2579 38.0185L21.504 37.1992C21.6198 36.8398 21.9238 36.5955 22.3001 36.5667C22.8646 36.5236 23.4291 36.4517 23.9792 36.3511C24.3555 36.2793 24.7174 36.4374 24.9056 36.768L25.3543 37.501C25.4556 37.4723 25.5714 37.4435 25.6727 37.4148L25.7017 36.5524C25.7161 36.1786 25.9477 35.8624 26.3096 35.7331C26.7149 35.5893 27.1202 35.4312 27.511 35.2587C27.4965 35.0575 27.5399 34.8563 27.6557 34.6838C28.5387 33.3614 29.1322 31.7947 28.9585 30.1848C28.8282 29.0205 28.2926 27.9281 27.4386 27.1232C27.1781 26.8789 26.9031 26.6776 26.5991 26.4908C24.6016 25.2834 21.5185 25.2259 19.246 25.0678C16.7129 24.8809 14.0206 24.5934 11.8494 23.1848C11.5165 22.9692 11.1981 22.7392 10.8941 22.4949L10.8651 22.4805ZM21.1421 20.3101C20.7658 20.3101 20.4618 20.6119 20.4618 20.9856C20.4618 21.3593 20.7658 21.6612 21.1421 21.6612C21.5185 21.6612 21.8225 21.3593 21.8225 20.9856C21.8225 20.6119 21.5185 20.3101 21.1421 20.3101Z" fill="#65696D"/>
<path fill-rule="evenodd" clip-rule="evenodd" d="M0.90625 1.76791H12.8189C10.5464 3.67961 7.86856 6.31 7.86856 9.86031C7.86856 9.88906 7.86856 9.91781 7.86856 9.94656C7.88304 9.88906 7.89751 9.83156 7.89751 9.7597L7.91199 9.71658C7.94094 9.60159 7.95541 9.50097 7.98436 9.40035L7.99883 9.35723C8.04226 9.18475 8.08568 8.99789 8.14358 8.82541L8.15806 8.78228C9.82264 3.3059 16.6981 0.891113 22.4445 0.891113C27.3225 0.891113 29.9279 1.17859 33.0255 1.49481C33.0111 1.58105 32.9966 1.66729 32.9821 1.76791L32.9676 1.83978V1.86853L32.9532 1.95477V1.96914C32.5334 4.41267 32.2873 6.94245 32.0991 9.41473V9.47222V9.57284V9.65908V9.73095L32.0847 9.83156V9.87469L32.0702 10.0041V10.0328L32.0557 10.1909L35.1244 1.76791H41.3629V3.19091C39.6115 3.34902 38.2219 4.82951 38.2219 6.61185V34.8275C38.2219 36.6098 39.6115 38.0903 41.3629 38.2484V39.6714H30.753C32.9097 37.7597 34.9796 34.77 34.9796 31.3203C34.9796 31.2915 34.9796 31.2628 34.9796 31.234C33.9519 35.3162 30.5648 38.3346 27.062 39.657C24.8908 40.5769 22.2564 41.1088 19.1733 41.1088C15.902 41.1088 12.6742 40.5913 9.77922 39.2977H9.76474H9.75027L9.69237 39.2689H9.6779H9.66342H9.64895L9.59105 39.2402H9.57657L9.51867 39.2114H9.5042H9.48972L9.41735 39.1827L9.34498 39.1396C9.3305 39.1252 9.3305 39.1108 9.31603 39.0965V39.0821C9.30155 39.0677 9.30155 39.0533 9.28708 39.039L9.2726 39.0102L9.25813 38.9671L9.24366 38.9383L9.21471 38.8808V38.8665C9.20023 38.8377 9.20023 38.8234 9.18576 38.7946L9.17128 38.7659L9.15681 38.7084L9.14233 38.6796L9.11338 38.6221L9.09891 38.5934L9.06996 38.5215L9.05548 38.4928C9.04101 38.464 9.02654 38.4209 9.02654 38.3921V38.3778L8.99759 38.2771L8.98311 38.234L8.95416 38.1622C8.38965 36.3223 8.01331 34.2094 7.70934 32.3121V32.2977L7.68039 32.1396V32.1252L7.65144 31.9815L7.63697 31.9383L7.62249 31.8377L7.60802 31.7515L7.59354 31.6796L7.57907 31.5646V31.5359L7.56459 31.3921L7.55012 31.2484V31.2197L7.53565 31.1047V31.0759L7.52117 30.9897L7.5067 30.9034L7.49222 30.8172L7.47775 30.6878V30.6735L7.53565 39.7289H0.935199V38.3059C2.68663 38.1478 4.0762 36.6673 4.0762 34.885V6.66935C4.0762 4.88701 2.68663 3.40651 0.935199 3.2484V1.8254L0.90625 1.76791ZM34.748 27.2381C33.8361 23.0698 31.6794 20.8706 29.5516 19.462C26.2803 17.2915 21.909 17.7084 18.8838 17.1478C13.4703 16.156 11.907 10.4928 13.89 7.02869C13.919 6.9712 13.2387 6.23814 12.9347 5.73506C12.8768 5.64881 11.7767 5.90754 11.5451 5.99378C12.0517 5.62007 12.8768 5.17448 12.9057 5.20323L14.0782 6.12315C14.1506 6.18064 15.4243 5.4907 15.6849 5.40446L15.6994 5.16011L15.7428 3.89522C16.2783 3.72274 16.8284 3.59337 17.3784 3.46401L18.0443 4.54204L18.1745 4.75764C18.7535 4.65703 19.347 4.57078 19.9404 4.52766L20.0128 4.28331L20.3747 3.07592C20.6352 3.06154 20.8813 3.06154 21.1418 3.06154C21.4458 3.06154 21.7642 3.07592 22.0682 3.09029L22.4301 4.29768L22.5024 4.54204C23.1249 4.58516 23.7183 4.6714 24.3263 4.78639L24.4565 4.57078L25.1368 3.49276C25.6869 3.62212 26.2369 3.76586 26.758 3.93834L26.7869 5.20323V5.44758C27.3225 5.63444 27.887 5.92191 28.3936 6.16627L29.5806 5.26072L30.8833 6.05128C30.8254 6.13752 29.5661 5.70631 29.4937 5.80692C29.2476 6.20939 28.6108 6.85621 28.6397 6.9137C28.9581 7.54614 29.3779 8.25046 29.5516 9.08413C30.0148 11.1396 29.9424 13.6406 29.9424 15.2217L29.8845 17.6509C32.8084 19.3038 35.4717 23.6878 34.8204 26.7351C34.7914 26.8932 34.7914 27.0657 34.777 27.2381H34.748ZM28.3792 35.2012L29.4213 36.1642L30.7241 36.0923L29.1897 36.8254L28.4081 36.0923L28.2344 35.9199C27.6988 36.1786 27.1488 36.3942 26.5843 36.5954L26.5698 36.8398L26.5264 38.1047C25.9908 38.2771 25.4408 38.4065 24.8908 38.5359L24.2249 37.4578L24.0947 37.2422C23.5157 37.3429 22.9222 37.4291 22.3143 37.4722L22.2419 37.7166L21.88 38.924C21.6195 38.9383 21.3734 38.9383 21.1129 38.9383C20.8089 38.9383 20.4905 38.924 20.1865 38.9096L19.8246 37.7022L19.7523 37.4578C19.1299 37.4147 18.5364 37.3285 17.9285 37.2135L17.7982 37.4291L17.1179 38.5071C16.5678 38.3778 16.0178 38.234 15.4967 38.0615L15.4678 36.7967V36.5523C14.9032 36.3511 14.3532 36.1211 13.8176 35.8624L13.6295 36.0349L12.7031 36.8973C12.1965 36.6385 11.7188 36.3511 11.2412 36.0492L11.5451 34.8275L11.603 34.5831C11.4438 34.4681 11.2846 34.3675 11.1398 34.2525L10.1845 33.3326L8.85284 34.1231L10.3148 32.6139L12.2978 33.9794V24.9383C9.47525 23.3572 7.34747 19.2751 7.59354 16.4435C7.63697 15.9404 7.62249 15.4517 7.69487 14.9917C8.23043 18.5995 10.0687 21.0287 12.2689 22.4804C16.8429 25.4702 24.2249 23.0123 27.9883 26.5338C29.8266 28.2443 30.8399 31.5503 28.3502 35.2443L28.3792 35.2012ZM21.1418 19.4332C22.0103 19.4332 22.7196 20.1375 22.7196 20.9999C22.7196 21.8624 22.0103 22.5667 21.1418 22.5667C20.2733 22.5667 19.5641 21.8624 19.5641 20.9999C19.5641 20.1375 20.2733 19.4332 21.1418 19.4332Z" fill="url(#paint0_linear_2792_729)"/>
<path fill-rule="evenodd" clip-rule="evenodd" d="M0.906879 1.76791H12.8195C12.6458 1.91165 12.4866 2.05538 12.3129 2.2135H1.35559V3.26278C1.21085 3.23403 1.0661 3.20528 0.906879 3.19091V1.76791ZM10.0404 5.50508C12.9064 2.32848 18.0159 0.891113 22.4307 0.891113C27.3087 0.891113 29.9141 1.17859 33.0117 1.49481C32.9972 1.58105 32.9827 1.66729 32.9683 1.76791L32.9538 1.83978V1.86853V1.8829C30.0733 1.59543 27.4968 1.3367 22.8794 1.3367C17.1475 1.3367 9.93907 3.75148 8.27448 9.22787L8.26001 9.27099C8.20211 9.44347 8.15869 9.61596 8.11526 9.80282L8.10079 9.84594C8.07184 9.94655 8.05736 10.0615 8.02841 10.1622L8.01394 10.2053C7.99946 10.2628 7.98499 10.3203 7.98499 10.3921C7.98499 10.3634 7.98499 10.3346 7.98499 10.3059C7.98499 8.48044 9.02717 6.88495 10.0259 5.51945L10.0404 5.50508ZM35.0816 1.76791H41.3201V2.2135H35.5158L31.984 10.4496L31.9985 10.2915V10.2628L32.0129 10.1334V10.0903L32.0274 9.98968V9.91781L32.0419 9.74532V9.68783L35.0671 1.78228L35.0816 1.76791ZM39.424 37.4578C39.945 37.8891 40.6109 38.1765 41.3201 38.2484V38.6221C40.5675 38.4496 39.9016 38.0328 39.424 37.4722V37.4578ZM31.6221 39.6714H30.7102C33.0262 37.6303 34.6184 35.3305 34.9513 31.5359C35.1105 34.6119 33.7933 37.5728 31.6221 39.6714ZM1.32664 39.6714H0.87793V38.2484C2.62936 38.0903 4.01893 36.6098 4.01893 34.8275V6.61185C4.01893 5.77818 3.71496 5.01637 3.20835 4.41267C3.97551 5.04512 4.45317 5.99378 4.45317 7.04306V35.2587C4.45317 37.041 3.0636 38.5215 1.31217 38.6796V39.6714H1.32664ZM31.6945 21.2587C30.9997 20.54 30.2615 19.9507 29.5233 19.462C26.252 17.2915 21.8807 17.7084 18.8555 17.1478C17.3935 16.8747 16.2066 16.271 15.2947 15.4373C16.25 16.4722 17.5817 17.2628 19.3042 17.579C22.3149 18.1396 26.6863 17.7227 29.972 19.8932C30.551 20.2813 31.13 20.7268 31.6945 21.2443V21.2587ZM30.4786 6.02253C30.276 5.97941 30.0154 5.90754 29.7983 5.85005L28.8575 6.56873C28.6982 6.75559 28.5824 6.89933 28.5969 6.9137C28.9154 7.54614 29.3351 8.25046 29.5088 9.08413C29.972 11.1396 29.8996 13.6406 29.8996 15.2217L29.8417 17.6509C29.9865 17.7371 30.1457 17.8234 30.2904 17.924L30.3483 15.6529C30.3483 14.0718 30.4207 11.5708 29.9575 9.51534C29.7694 8.68167 29.3496 7.97736 29.0456 7.34491C29.0167 7.28742 29.6536 6.6406 29.8996 6.23814C29.9575 6.13752 31.2313 6.56873 31.2892 6.48249L30.4931 5.99378L30.4786 6.02253ZM31.9116 19.3038C33.7933 21.273 35.2842 24.004 34.7486 26.9794C35.5303 24.9958 35.5013 22.3223 31.9116 19.3038ZM28.3653 35.1868L28.8285 35.6036C31.3037 31.924 30.2904 28.6324 28.4522 26.9075C28.4232 26.8788 28.3798 26.85 28.3508 26.8213C29.9575 28.618 30.6957 31.7227 28.3653 35.1868ZM29.7838 36.5236L29.1759 36.811L28.3943 36.078L28.2061 35.9055C27.6705 36.1642 27.1205 36.3798 26.556 36.5811L26.5415 36.8254L26.4981 38.0903C26.0204 38.234 25.5138 38.3778 25.0217 38.4784L25.3112 38.9527C25.8612 38.8377 26.4112 38.694 26.9468 38.5215L26.9902 37.2566L27.0047 37.0123C27.5692 36.811 28.1192 36.5954 28.6548 36.3367L28.8285 36.5092L29.6101 37.2422L31.1445 36.5092L29.8417 36.5811L29.7694 36.5236H29.7838ZM24.3703 37.6878L24.2111 37.4291L24.0808 37.2135C23.5018 37.3141 22.9084 37.4004 22.3149 37.4435L22.2425 37.6878L21.8807 38.8952C21.6201 38.9096 21.3741 38.9096 21.1135 38.9096C20.9109 38.9096 20.7082 38.9096 20.5056 38.8952L20.6358 39.3264C20.9398 39.3408 21.2438 39.3552 21.5622 39.3552C21.8228 39.3552 22.0688 39.3552 22.3294 39.3408L22.6912 38.1334L22.7636 37.8891C23.3137 37.8459 23.8492 37.7884 24.3848 37.6878H24.3703ZM19.8832 37.8459L19.8397 37.6735L19.7674 37.4291C19.145 37.386 18.5515 37.2997 17.9436 37.1847L17.8133 37.4004L17.133 38.4784C16.7277 38.3921 16.3369 38.2915 15.9461 38.1622V38.464C16.4816 38.6365 17.0172 38.7802 17.5672 38.9096L18.2475 37.8316L18.3778 37.616C18.8699 37.7166 19.3621 37.7884 19.8687 37.8316L19.8832 37.8459ZM15.4829 36.7967V36.7679V36.5236C14.9184 36.3223 14.3683 36.0923 13.8328 35.8336L13.6446 36.0061L12.7182 36.8685C12.3853 36.696 12.0524 36.5092 11.7339 36.3223L11.705 36.4661C12.1826 36.7679 12.6603 37.0554 13.1669 37.3141L14.0933 36.4517L14.2815 36.2792C14.6723 36.4661 15.0776 36.6529 15.4973 36.811L15.4829 36.7967ZM22.4307 20.1231C22.5899 20.3675 22.6912 20.6693 22.6912 20.9856C22.6912 21.848 21.982 22.5523 21.1135 22.5523C20.7951 22.5523 20.4911 22.4517 20.245 22.2936C20.5345 22.7104 21.0122 22.9979 21.5622 22.9979C22.4307 22.9979 23.14 22.2936 23.14 21.4312C23.14 20.885 22.8649 20.4106 22.4307 20.1231Z" fill="#FEFEFE"/>
<path d="M176.035 7.56062C175.832 5.89327 175.673 4.78649 175.557 3.79471C174.848 3.56473 173.488 3.14789 171.953 3.14789C168.32 3.14789 166.091 5.36144 166.091 8.13557C166.091 10.8378 168.32 12.2177 170.65 13.4107C172.691 14.4456 173.98 15.4087 173.98 17.1335C173.98 18.9302 172.88 20.0945 171.07 20.0945C168.407 20.0945 166.959 17.2054 166.496 15.5524L165.628 15.8111C165.787 17.2629 166.149 19.5483 166.38 20.1807C166.67 20.3101 167.133 20.5113 167.871 20.7269C168.581 20.9569 169.521 21.115 170.535 21.115C174.327 21.115 176.846 18.8296 176.846 15.8974C176.846 13.1376 174.674 11.7721 172.141 10.5504C169.869 9.4292 168.74 8.55241 168.74 6.9138C168.74 5.43331 169.782 4.1828 171.533 4.1828C173.763 4.1828 174.674 6.10887 175.167 7.76185L176.035 7.57499V7.56062ZM69.9792 3.53598H62.3366V4.41278C64.4065 4.57089 64.6091 4.729 64.6091 6.95692V10.9528H56.4165V6.95692C56.4165 4.729 56.6191 4.57089 58.6166 4.41278V3.53598H51.0029V4.41278C53.1162 4.57089 53.3623 4.729 53.3623 6.95692V17.306C53.3623 19.5196 53.1307 19.6777 51.0898 19.8789V20.7126H58.7034V19.8789C56.6336 19.6777 56.4309 19.5196 56.4309 17.306V12.2321H64.6236V17.306C64.6236 19.5196 64.4209 19.6777 62.1918 19.8789V20.7126H69.9937V19.8789C67.8949 19.6777 67.6633 19.5196 67.6633 17.306V6.95692C67.6633 4.729 67.8514 4.57089 69.9937 4.41278V3.53598H69.9792ZM84.5552 16.2136C84.1065 17.3635 83.5854 18.2403 83.1222 18.7865C82.4998 19.4621 81.6024 19.6489 79.9523 19.6489C78.8232 19.6489 77.8534 19.6202 77.3902 19.3614C76.8692 19.074 76.7389 18.4559 76.7389 17.2054V12.4764H78.8522C81.1537 12.4764 81.4431 12.6058 81.7761 14.5031H82.659V9.28547H81.7761C81.4287 11.1109 81.1681 11.2834 78.8522 11.2834H76.7389V5.4908C76.7389 4.68588 76.8113 4.59963 77.7376 4.59963H79.3877C81.0668 4.59963 81.7761 4.78649 82.2103 5.30395C82.6301 5.85015 82.9485 6.58321 83.2091 7.60374L84.092 7.47438C83.9907 5.93639 83.8894 4.11093 83.8604 3.53598H71.4556V4.3984C73.4387 4.58526 73.6847 4.68588 73.6847 7.04317V17.2916C73.6847 19.5052 73.4531 19.6777 71.0648 19.8933V20.7269H84.5118C84.7144 19.922 85.2645 17.4785 85.4526 16.4148L84.5697 16.228L84.5552 16.2136ZM91.2859 12.2896V5.85015C91.2859 5.23208 91.3583 4.9446 91.5465 4.78649C91.7346 4.62838 92.1254 4.52776 92.8492 4.52776C94.5717 4.52776 96.3231 5.5483 96.3231 8.39429C96.3231 9.77417 95.9323 10.8091 94.9914 11.5853C94.3401 12.1027 93.4426 12.2896 92.1978 12.2896H91.2859ZM102.359 20.1664C101.751 19.9651 101.23 19.6489 100.608 19.0021C100.058 18.384 99.4496 17.5935 98.5088 16.1417C97.6982 14.9775 96.656 13.2095 96.2073 12.3758C98.089 11.6284 99.5799 10.2916 99.5799 8.0062C99.5799 6.3676 98.8706 5.20333 97.7995 4.49902C96.7573 3.76596 95.4112 3.53598 93.2255 3.53598H86.0606V4.41278C88.0725 4.57089 88.3041 4.77212 88.3041 6.92818V17.2485C88.3041 19.4621 88.0146 19.6633 85.9448 19.8789V20.7126H93.6163V19.8789C91.5175 19.6777 91.2859 19.4621 91.2859 17.2485V13.267H91.9083C93.0084 13.267 93.4716 13.612 93.9493 14.3594C94.7309 15.7105 95.5415 17.2198 96.3376 18.4128C97.4955 20.1089 98.5667 20.7844 101.36 20.8851C101.679 20.9138 102.012 20.9425 102.229 20.9425L102.359 20.1664ZM116.284 15.8543C114.894 18.5565 113.331 19.9795 110.812 19.9795C106.919 19.9795 104.11 16.7023 104.11 11.8152C104.11 7.86247 106.354 4.22592 110.581 4.22592C113.07 4.22592 114.981 5.24645 115.763 8.25056L116.674 8.0637C116.515 6.48259 116.327 5.30395 116.067 3.82345C115.357 3.69409 113.403 3.11914 111.203 3.11914C104.892 3.11914 100.579 6.84193 100.579 12.3183C100.579 16.5298 103.56 21.0719 110.581 21.0719C112.462 21.0719 114.894 20.5545 115.603 20.3676C116.081 19.4908 116.776 17.4641 117.152 16.1848L116.284 15.8255V15.8543ZM135.955 3.53598H129.34V4.41278C131.193 4.51339 131.829 4.95898 131.989 5.92202C132.119 6.72694 132.22 7.7906 132.22 9.87479V12.2896C132.22 16.7023 130.889 19.4333 127.386 19.4333C124.274 19.4333 122.681 17.0616 122.681 12.9651V7.17253C122.681 4.729 122.971 4.57089 124.983 4.41278V3.53598H117.34V4.41278C119.41 4.59963 119.642 4.729 119.642 7.17253V13.4826C119.642 16.6017 120.394 18.5709 121.972 19.7495C123.203 20.7413 124.853 21.1007 126.546 21.1007C128.399 21.1007 130.237 20.4826 131.439 19.2033C132.987 17.5935 133.451 15.3512 133.451 12.3902V9.87479C133.451 7.7906 133.552 6.72694 133.653 5.97951C133.784 4.97335 134.435 4.49902 135.955 4.42715V3.55035V3.53598ZM149.127 16.113C148.635 17.4066 148.157 18.269 147.665 18.8152C147.057 19.4908 146.101 19.6489 144.784 19.6489C143.843 19.6489 143.033 19.6202 142.555 19.3902C142.034 19.1315 141.904 18.6571 141.904 17.3347V6.98567C141.904 4.70025 142.164 4.57089 144.234 4.41278V3.53598H136.519V4.41278C138.633 4.57089 138.879 4.729 138.879 6.98567V17.2485C138.879 19.5052 138.618 19.6633 136.288 19.8789V20.7126H149.025C149.257 19.9651 149.807 17.3635 149.995 16.343L149.127 16.113ZM163.761 16.2136C163.312 17.3635 162.791 18.2403 162.328 18.7865C161.705 19.4621 160.808 19.6489 159.158 19.6489C158.029 19.6489 157.059 19.6202 156.596 19.3614C156.075 19.074 155.944 18.4559 155.944 17.2054V12.4764H158.058C160.359 12.4764 160.648 12.6058 160.981 14.5031H161.864V9.28547H160.981C160.648 11.1109 160.373 11.2834 158.058 11.2834H155.944V5.4908C155.944 4.68588 156.017 4.59963 156.943 4.59963H158.593C160.272 4.59963 160.981 4.78649 161.416 5.30395C161.835 5.85015 162.154 6.58321 162.414 7.60374L163.297 7.47438C163.196 5.93639 163.095 4.11093 163.066 3.53598H150.661V4.3984C152.644 4.58526 152.89 4.68588 152.89 7.04317V17.2916C152.89 19.5052 152.658 19.6777 150.27 19.8933V20.7269H163.717C163.92 19.922 164.47 17.4785 164.658 16.4148L163.775 16.228L163.761 16.2136Z" fill="#FEFEFE"/>
<path d="M76.5511 34.77C76.4353 34.7125 75.8997 34.8706 75.8418 34.9856C75.8563 35.6899 76.2616 37.8891 76.4932 38.2053C76.9998 38.4641 78.2301 38.8521 79.6197 38.8521C82.7462 38.8521 84.4542 37.156 84.4542 35.0287C84.4542 33.5914 83.7884 32.7002 82.2975 31.7803C81.429 31.2628 80.9224 30.961 80.0539 30.4148C79.2289 29.8542 78.8091 29.308 78.8091 28.4743C78.8091 27.54 79.4749 26.7926 80.5461 26.7926C81.1685 26.7926 81.6317 26.9076 82.0514 27.2526C82.5291 27.5975 82.8041 28.1725 82.9778 29.3942C83.0791 29.4517 83.5857 29.4517 83.6871 29.3511C83.7739 28.1006 83.8897 27.1663 84.0345 26.4045C83.0502 26.3039 82.2251 26.0452 80.6619 26.0452C78.3459 26.0452 76.3629 27.3101 76.3629 29.6673C76.3629 31.7947 77.8104 32.7146 79.5328 33.7782C81.4145 34.9137 81.7909 35.5174 81.7909 36.4661C81.7909 37.4723 81.0382 38.0328 80.0973 38.0328C79.5184 38.0328 78.7802 37.8747 78.2591 37.4866C77.5064 36.9261 76.9853 36.1499 76.5511 34.77ZM141.094 27.037C141.47 27.0801 141.846 27.1232 142.136 27.2238C142.512 27.3388 142.657 27.4969 142.7 28.0719C142.758 28.7905 142.758 30.3573 142.758 31.8378C142.758 34.1376 142.758 35.5174 142.7 36.6673C142.7 37.3142 142.498 37.5298 142.136 37.6304C141.846 37.7166 141.354 37.7885 140.645 37.8891C140.601 37.9897 140.601 38.4066 140.645 38.5647C141.73 38.5647 143.207 38.5072 144.278 38.5072C146.42 38.5072 148.345 38.5934 150.039 38.5934C150.907 38.5934 151.009 38.4497 151.081 38.2772C151.443 37.6016 151.906 35.7905 152.007 35.3306C151.921 35.23 151.4 35.0431 151.255 35.0719C150.951 35.7762 150.574 36.4805 150.184 36.9117C149.735 37.4291 149.46 37.5154 148.548 37.5154C147.419 37.5154 146.435 37.4579 146.044 37.3717C145.798 37.3142 145.624 37.0267 145.624 36.7105V33.1889C145.624 33.1458 145.711 33.002 145.769 33.002C146.377 33.002 147.926 33.002 148.287 33.0452C148.693 33.1027 148.852 33.3326 148.968 33.6201L149.17 34.4394C149.272 34.4969 149.851 34.4825 149.952 34.425C149.938 33.8645 149.909 32.9445 149.909 32.3983C149.909 31.7515 149.995 30.9322 150.01 30.4579C149.909 30.3717 149.301 30.3573 149.199 30.4148C149.141 30.6735 149.098 30.9322 149.04 31.1335C148.924 31.6365 148.736 31.809 148.316 31.8378C147.665 31.8809 146.276 31.8521 145.754 31.8521C145.697 31.8521 145.61 31.7659 145.61 31.694C145.61 30.3285 145.595 29.0924 145.61 27.8131C145.61 27.7125 145.711 27.4682 145.812 27.4538C146.131 27.4107 148.085 27.4107 148.62 27.4682C148.895 27.4825 149.243 27.5832 149.445 27.9856C149.605 28.3018 149.706 28.7331 149.822 29.4661C149.923 29.5236 150.473 29.4805 150.589 29.4086C150.647 28.2875 150.734 27.0082 150.878 26.3901C150.878 26.347 150.835 26.3039 150.821 26.3039C150.111 26.4045 148.982 26.4189 148.201 26.4189H144.148C143.163 26.4189 141.89 26.3614 141.108 26.3614C141.021 26.4189 140.992 26.9363 141.065 27.037H141.094ZM138.517 29.7823C138.561 29.8829 139.183 29.8398 139.27 29.7248C139.27 28.6612 139.472 27.0082 139.588 26.3758C138.676 26.3326 137.07 26.0595 135.492 26.0595C133.813 26.0595 132.481 26.3614 131.396 26.9076C129.181 27.9856 128.095 30.0986 128.095 32.3409C128.095 36.6817 130.773 38.8665 135.289 38.8665C136.766 38.8665 137.649 38.579 138.314 38.3922C138.879 38.0185 139.704 36.3942 139.95 35.5893C139.849 35.4025 139.501 35.2156 139.342 35.1725C138.893 35.9343 138.314 36.7392 137.808 37.1704C137.2 37.7166 136.433 37.7885 135.854 37.7885C132.611 37.7885 131.396 34.8706 131.396 32.1396C131.396 28.5174 132.872 26.8788 135 26.8788C135.81 26.8788 136.606 26.9795 137.359 27.3963C138.17 27.8706 138.3 28.6324 138.503 29.7967L138.517 29.7823ZM121.958 27.037C122.421 27.0944 122.682 27.1376 123.073 27.2382C123.42 27.3532 123.55 27.6406 123.579 28.0575C123.637 28.9199 123.637 29.8829 123.637 31.9959C123.637 33.6201 123.637 35.9199 123.594 36.6242C123.536 37.4291 123.406 37.5873 122.884 37.7022C122.667 37.7454 122.378 37.8029 121.958 37.8604C121.857 37.9466 121.857 38.4641 121.958 38.5359C122.725 38.5359 123.333 38.4784 125.143 38.4784C126.575 38.4784 127.343 38.5216 128.168 38.5359C128.255 38.4784 128.327 37.961 128.269 37.8604C127.864 37.7741 127.357 37.7166 127.126 37.6448C126.561 37.501 126.547 37.0411 126.518 36.6817C126.474 35.9055 126.503 34.4394 126.503 32.0103C126.503 30.2854 126.489 28.8624 126.518 28.2443C126.532 27.6694 126.561 27.3819 126.995 27.2238C127.256 27.1376 127.647 27.0801 128.037 27.0226C128.124 26.922 128.095 26.4189 128.037 26.347C127.618 26.347 126.923 26.4045 124.969 26.4045C123.579 26.4045 122.696 26.347 121.958 26.347C121.871 26.4333 121.871 26.922 121.944 27.0226L121.958 27.037ZM107.31 27.0513C107.715 27.1088 107.918 27.1519 108.178 27.2382C108.844 27.425 109.119 27.8419 109.77 29.3367C110.378 30.7597 111.276 33.0883 112.376 35.848C112.796 36.8829 113.129 37.7885 113.404 38.6509C113.852 38.6078 114.75 38.6078 115.155 38.6509C115.343 38.0472 115.633 37.1273 116.197 35.7618C117.225 33.2608 118.412 30.4148 119.063 28.9343C119.468 28.0287 119.715 27.5975 120.236 27.3101C120.438 27.1951 120.815 27.1088 121.278 27.037C121.365 26.8932 121.321 26.4189 121.263 26.3614C120.8 26.3614 120.178 26.4189 118.86 26.4189C117.413 26.4189 116.704 26.3326 116.356 26.3326C116.27 26.3901 116.212 26.9076 116.27 27.037C116.791 27.0944 117.239 27.1951 117.543 27.2813C118.093 27.4394 118.151 27.8419 117.92 28.5031C117.558 29.7823 115.937 33.9363 115.401 35.0719C115.358 35.115 115.3 35.0862 115.285 35.0719C114.822 34.0082 112.825 29.0636 112.419 27.8994C112.332 27.6406 112.376 27.4538 112.506 27.3532C112.651 27.2526 113.027 27.1376 113.577 27.037C113.635 26.9507 113.635 26.4189 113.534 26.3614C113.114 26.3614 111.753 26.4189 110.451 26.4189C109.38 26.4189 108.048 26.3614 107.382 26.3614C107.295 26.4045 107.237 26.922 107.295 27.0657L107.31 27.0513ZM97.0906 27.037C97.4669 27.0801 97.8722 27.1519 98.1183 27.2238C98.4802 27.3101 98.6683 27.5832 98.6828 28.1294C98.7262 29.0062 98.7262 30.2279 98.7262 32.1684C98.7262 33.4045 98.7118 36.1068 98.6683 36.7392C98.6539 37.3573 98.5091 37.616 98.0894 37.7166C97.8288 37.7741 97.5248 37.8316 97.163 37.8747C97.0617 37.961 97.1051 38.4784 97.1775 38.5503C97.5972 38.5503 98.5091 38.4928 100.188 38.4928C101.78 38.4928 102.75 38.5503 103.199 38.5503C103.315 38.5072 103.344 37.8891 103.242 37.8747C102.721 37.7885 102.533 37.7741 102.171 37.6735C101.751 37.5585 101.621 37.3142 101.607 36.7392C101.592 35.8768 101.563 34.6406 101.563 33.3901C101.563 33.347 101.607 33.2751 101.65 33.2751H102.128C102.403 33.2895 102.577 33.4189 102.707 33.6345C103.358 34.6981 104.299 36.3942 105.11 37.386C105.225 37.5729 105.631 37.9897 106.123 38.2341C106.948 38.5934 109.003 38.694 110.19 38.5934C110.277 38.5359 110.378 37.9322 110.335 37.8747C109.307 37.7597 109.191 37.6879 108.482 37.0123C107.498 36.0636 105.66 33.3614 105.269 32.6283C105.254 32.5852 105.269 32.4846 105.283 32.4702C106.615 31.9528 107.643 31.0041 107.643 29.4517C107.643 27.655 106.296 26.3901 103.807 26.3901C102.62 26.3901 101.505 26.4476 99.9711 26.4476C99.2039 26.4476 97.6262 26.3901 97.1485 26.3901C97.0472 26.4333 97.0038 26.9507 97.0906 27.0657V27.037ZM102.273 27.2238C103.821 27.2238 104.748 28.3881 104.748 30.0411C104.748 31.3059 104.371 31.8234 103.836 32.0821C103.474 32.2834 102.519 32.3552 101.665 32.3265C101.607 32.3265 101.549 32.2402 101.549 32.1684C101.549 29.5236 101.549 28.0431 101.592 27.5975C101.592 27.5113 101.65 27.3532 101.737 27.2957C101.882 27.2382 102.142 27.2094 102.287 27.2094L102.273 27.2238ZM85.8004 27.037C86.1767 27.0801 86.553 27.1232 86.8425 27.2238C87.2189 27.3388 87.3636 27.4969 87.4071 28.0719C87.465 28.7905 87.465 30.3573 87.465 31.8378C87.465 34.1376 87.465 35.5174 87.4071 36.6673C87.4071 37.3142 87.2044 37.5298 86.8425 37.6304C86.553 37.7166 86.0609 37.7885 85.3517 37.8891C85.3082 37.9897 85.3082 38.4066 85.3517 38.5647C86.4373 38.5647 87.9137 38.5072 88.9848 38.5072C91.127 38.5072 93.0522 38.5934 94.7457 38.5934C95.6142 38.5934 95.7155 38.4497 95.7879 38.2772C96.1497 37.6016 96.6129 35.7905 96.7143 35.3306C96.6274 35.23 96.1063 35.0431 95.9616 35.0719C95.6576 35.7762 95.2813 36.4805 94.8905 36.9117C94.4417 37.4291 94.1667 37.5154 93.2548 37.5154C92.1258 37.5154 91.1415 37.4579 90.7507 37.3717C90.5046 37.3142 90.3309 37.0267 90.3309 36.7105V33.1889C90.3309 33.1458 90.4178 33.002 90.4757 33.002C91.0836 33.002 92.6324 33.002 92.9943 33.0452C93.3996 33.1027 93.5588 33.3326 93.6746 33.6201L93.8772 34.4394C93.9785 34.4969 94.5575 34.4825 94.6589 34.425C94.6444 33.8645 94.6154 32.9445 94.6154 32.3983C94.6154 31.7515 94.7023 30.9322 94.7168 30.4579C94.6154 30.3717 94.0075 30.3573 93.9062 30.4148C93.8483 30.6735 93.8049 30.9322 93.747 31.1335C93.6312 31.6365 93.443 31.809 93.0232 31.8378C92.3719 31.8809 90.9823 31.8521 90.4612 31.8521C90.4033 31.8521 90.3165 31.7659 90.3165 31.694C90.3165 30.3285 90.302 29.0924 90.3165 27.8131C90.3165 27.7125 90.4178 27.4682 90.5191 27.4538C90.8375 27.4107 92.7916 27.4107 93.3272 27.4682C93.6022 27.4825 93.9496 27.5832 94.1522 27.9856C94.3115 28.3018 94.4128 28.7331 94.5286 29.4661C94.6299 29.5236 95.1799 29.4805 95.2957 29.4086C95.3536 28.2875 95.4405 27.0082 95.5852 26.3901C95.5852 26.347 95.5418 26.3039 95.5273 26.3039C94.8181 26.4045 93.6891 26.4189 92.9074 26.4189H88.8545C87.8702 26.4189 86.5965 26.3614 85.8148 26.3614C85.728 26.4189 85.699 26.9363 85.7714 27.037H85.8004Z" fill="#FEFEFE"/>
<path fill-rule="evenodd" clip-rule="evenodd" d="M50.8438 32.4415H73.4242V34.0945H50.8438V32.4415ZM176.99 32.4415V34.0945H152.34V32.4415H176.99Z" fill="url(#paint1_linear_2792_729)"/>
</g>
<defs>
<linearGradient id="paint0_linear_2792_729" x1="12.7528" y1="41.8535" x2="29.2925" y2="0.0622211" gradientUnits="userSpaceOnUse">
<stop stop-color="#FEFEFE"/>
<stop offset="0.270588" stop-color="#898E91"/>
<stop offset="0.458824" stop-color="#FEFEFE"/>
<stop offset="0.580392" stop-color="#65696D"/>
<stop offset="0.690196" stop-color="#FEFEFE"/>
<stop offset="0.8" stop-color="#898E91"/>
<stop offset="0.890196" stop-color="#FEFEFE"/>
<stop offset="1" stop-color="#282829"/>
</linearGradient>
<linearGradient id="paint1_linear_2792_729" x1="59.3905" y1="55.1307" x2="168.221" y2="10.8774" gradientUnits="userSpaceOnUse">
<stop stop-color="#FEFEFE"/>
<stop offset="0.270588" stop-color="#898E91"/>
<stop offset="0.380392" stop-color="#FEFEFE"/>
<stop offset="0.470588" stop-color="#65696D"/>
<stop offset="0.580392" stop-color="#FEFEFE"/>
<stop offset="0.729412" stop-color="#898E91"/>
<stop offset="0.788235" stop-color="#FEFEFE"/>
<stop offset="1" stop-color="#282829"/>
</linearGradient>
<clipPath id="clip0_2792_729">
<rect width="177" height="42" fill="white"/>
</clipPath>
</defs>
</svg>
