<svg width="49" height="26" viewBox="0 0 49 26" fill="none" xmlns="http://www.w3.org/2000/svg">
<path d="M6.76 20.24C5.73333 20.24 4.80667 20.04 3.98 19.64C3.15333 19.2267 2.49333 18.6067 2 17.78C1.52 16.9533 1.28 15.9067 1.28 14.64V6H3.84V14.66C3.84 15.7533 4.1 16.5667 4.62 17.1C5.15333 17.6333 5.88667 17.9 6.82 17.9C7.74 17.9 8.46667 17.6333 9 17.1C9.53333 16.5667 9.8 15.7533 9.8 14.66V6H12.36V14.64C12.36 15.9067 12.1067 16.9533 11.6 17.78C11.0933 18.6067 10.4133 19.2267 9.56 19.64C8.72 20.04 7.78667 20.24 6.76 20.24ZM14.5533 20V18.04L20.9933 8.14H14.6133V6H23.9533V7.96L17.4733 17.86H23.9933V20H14.5533Z" fill="white"/>
<path d="M41.9997 10.1699C41.8123 9.98369 41.5589 9.87915 41.2947 9.87915C41.0305 9.87915 40.7771 9.98369 40.5897 10.1699L36.9997 13.7099L33.4597 10.1699C33.2723 9.98369 33.0189 9.87915 32.7547 9.87915C32.4905 9.87915 32.2371 9.98369 32.0497 10.1699C31.956 10.2629 31.8816 10.3735 31.8308 10.4954C31.78 10.6172 31.7539 10.7479 31.7539 10.8799C31.7539 11.012 31.78 11.1427 31.8308 11.2645C31.8816 11.3864 31.956 11.497 32.0497 11.5899L36.2897 15.8299C36.3827 15.9237 36.4933 15.9981 36.6151 16.0488C36.737 16.0996 36.8677 16.1257 36.9997 16.1257C37.1317 16.1257 37.2624 16.0996 37.3843 16.0488C37.5061 15.9981 37.6167 15.9237 37.7097 15.8299L41.9997 11.5899C42.0934 11.497 42.1678 11.3864 42.2186 11.2645C42.2694 11.1427 42.2955 11.012 42.2955 10.8799C42.2955 10.7479 42.2694 10.6172 42.2186 10.4954C42.1678 10.3735 42.0934 10.2629 41.9997 10.1699Z" fill="white"/>
</svg>
