<svg width="77" height="65" viewBox="0 0 77 65" fill="none" xmlns="http://www.w3.org/2000/svg">
<path d="M45.4996 11.4689C42.9242 9.97842 39.8606 9.58405 36.9918 10.3528L15.8573 16.0157C9.86499 17.6214 6.32773 23.7512 7.92706 29.7199L12.4556 46.6207C14.0549 52.5895 20.2046 56.1237 26.1755 54.5238L47.31 48.8608C53.2809 47.2609 56.8417 41.1248 55.2423 35.156L50.7138 18.2553C49.9457 15.3886 48.0759 12.9546 45.4996 11.4689Z" fill="url(#paint0_linear_1_1869)"/>
<g filter="url(#filter0_f_1_1869)">
<path d="M39.646 17.0274C38.0211 16.0311 36.0994 15.7481 34.309 16.2279L21.1198 19.7619C17.3802 20.7639 15.2148 24.7465 16.2649 28.6654L19.2382 39.7619C20.2883 43.6807 24.1682 46.0435 27.8944 45.0451L41.0836 41.511C44.8098 40.5126 46.9899 36.5261 45.9398 32.6072L42.9665 21.5107C42.4622 19.6285 41.2715 18.0206 39.646 17.0274Z" fill="#EF5641"/>
</g>
<foreignObject x="3.56152" y="2.95435" width="81.4414" height="76.4973"><div xmlns="http://www.w3.org/1999/xhtml" style="backdrop-filter:blur(7.5px);clip-path:url(#bgblur_0_1_1869_clip_path);height:100%;width:100%"></div></foreignObject><g data-figma-bg-blur-radius="15">
<mask id="path-3-outside-1_1_1869" maskUnits="userSpaceOnUse" x="18.5615" y="17.9543" width="52" height="47" fill="black">
<rect fill="white" x="18.5615" y="17.9543" width="52" height="47"/>
<path d="M65.3418 22.6155C62.9958 20.2645 59.8069 18.9543 56.4918 18.9543H32.0702C25.1459 18.9543 19.5615 24.5412 19.5615 31.4383V50.9677C19.5615 57.8648 25.1707 63.4516 32.0702 63.4516H56.4918C63.3914 63.4516 69.003 57.8648 69.003 50.9677V31.4383C69.003 28.1257 67.6903 24.9615 65.3418 22.6155Z"/>
</mask>
<path d="M65.3418 22.6155C62.9958 20.2645 59.8069 18.9543 56.4918 18.9543H32.0702C25.1459 18.9543 19.5615 24.5412 19.5615 31.4383V50.9677C19.5615 57.8648 25.1707 63.4516 32.0702 63.4516H56.4918C63.3914 63.4516 69.003 57.8648 69.003 50.9677V31.4383C69.003 28.1257 67.6903 24.9615 65.3418 22.6155Z" fill="#FFAC95" fill-opacity="0.4"/>
<path d="M64.634 23.3218C65.0241 23.7128 65.6573 23.7134 66.0482 23.3233C66.4391 22.9332 66.4398 22.3001 66.0497 21.9091L64.634 23.3218ZM66.0486 21.908C65.6578 21.5177 65.0247 21.518 64.6343 21.9088C64.244 22.2995 64.2444 22.9326 64.6351 23.323L66.0486 21.908ZM66.0497 21.9091C63.5144 19.3685 60.0701 17.9543 56.4918 17.9543V19.9543C59.5436 19.9543 62.4772 21.1605 64.634 23.3218L66.0497 21.9091ZM56.4918 17.9543H32.0702V19.9543H56.4918V17.9543ZM32.0702 17.9543C24.5948 17.9543 18.5615 23.9878 18.5615 31.4383H20.5615C20.5615 25.0947 25.6971 19.9543 32.0702 19.9543V17.9543ZM18.5615 31.4383V50.9677H20.5615V31.4383H18.5615ZM18.5615 50.9677C18.5615 58.4195 24.6208 64.4516 32.0702 64.4516V62.4516C25.7205 62.4516 20.5615 57.31 20.5615 50.9677H18.5615ZM32.0702 64.4516H56.4918V62.4516H32.0702V64.4516ZM56.4918 64.4516C63.9409 64.4516 70.003 58.4197 70.003 50.9677H68.003C68.003 57.3098 62.8418 62.4516 56.4918 62.4516V64.4516ZM70.003 50.9677V31.4383H68.003V50.9677H70.003ZM70.003 31.4383C70.003 27.8598 68.5844 24.4412 66.0486 21.908L64.6351 23.323C66.7962 25.4817 68.003 28.3916 68.003 31.4383H70.003Z" fill="url(#paint1_linear_1_1869)" mask="url(#path-3-outside-1_1_1869)"/>
</g>
<foreignObject x="12.6592" y="16.8062" width="63.4033" height="43.9205"><div xmlns="http://www.w3.org/1999/xhtml" style="backdrop-filter:blur(7.5px);clip-path:url(#bgblur_1_1_1869_clip_path);height:100%;width:100%"></div></foreignObject><g filter="url(#filter2_d_1_1869)" data-figma-bg-blur-radius="15">
<mask id="path-5-inside-2_1_1869" fill="white">
<path d="M60.6231 34.9238L60.4254 35.1215L49.2738 44.0457C47.892 45.1334 46.1838 45.7267 44.4311 45.7267C42.6734 45.7267 40.9949 45.1334 39.6105 44.0457L28.3626 35.2699L28.0387 34.9485C27.4726 34.2069 27.5468 33.1439 28.2143 32.4764C28.8545 31.809 29.9175 31.7348 30.6863 32.3034L41.8107 41.2028C43.2667 42.3919 45.321 42.3919 46.7548 41.2028L57.9014 32.3034C58.2747 31.9573 58.7691 31.7818 59.2882 31.809C59.7802 31.8584 60.2523 32.0834 60.5959 32.4517C61.214 33.1686 61.214 34.2069 60.6231 34.9238Z"/>
</mask>
<path d="M60.6231 34.9238L60.4254 35.1215L49.2738 44.0457C47.892 45.1334 46.1838 45.7267 44.4311 45.7267C42.6734 45.7267 40.9949 45.1334 39.6105 44.0457L28.3626 35.2699L28.0387 34.9485C27.4726 34.2069 27.5468 33.1439 28.2143 32.4764C28.8545 31.809 29.9175 31.7348 30.6863 32.3034L41.8107 41.2028C43.2667 42.3919 45.321 42.3919 46.7548 41.2028L57.9014 32.3034C58.2747 31.9573 58.7691 31.7818 59.2882 31.809C59.7802 31.8584 60.2523 32.0834 60.5959 32.4517C61.214 33.1686 61.214 34.2069 60.6231 34.9238Z" fill="url(#paint2_linear_1_1869)"/>
<path d="M60.4254 35.1215L60.5503 35.2777L60.559 35.2708L60.5668 35.263L60.4254 35.1215ZM49.2738 44.0457L49.3975 44.2029L49.3988 44.2019L49.2738 44.0457ZM39.6105 44.0457L39.7341 43.8884L39.7335 43.888L39.6105 44.0457ZM28.3626 35.2699L28.2217 35.4118L28.2302 35.4202L28.2396 35.4275L28.3626 35.2699ZM28.0387 34.9485L27.8798 35.0698L27.8881 35.0808L27.8979 35.0905L28.0387 34.9485ZM28.2143 32.4764L28.3557 32.6179L28.3586 32.6149L28.2143 32.4764ZM30.6863 32.3034L30.8114 32.1471L30.8053 32.1426L30.6863 32.3034ZM41.8107 41.2028L41.9372 41.0479L41.9356 41.0467L41.8107 41.2028ZM46.7548 41.2028L46.63 41.0465L46.6271 41.0489L46.7548 41.2028ZM57.9014 32.3034L58.0262 32.4597L58.0319 32.4551L58.0374 32.45L57.9014 32.3034ZM59.2882 31.809L59.3082 31.6097L59.2987 31.6092L59.2882 31.809ZM60.5959 32.4517L60.7475 32.321L60.7422 32.3153L60.5959 32.4517ZM60.4817 34.7823L60.2839 34.9801L60.5668 35.263L60.7645 35.0652L60.4817 34.7823ZM60.3004 34.9654L49.1489 43.8896L49.3988 44.2019L60.5503 35.2777L60.3004 34.9654ZM49.1501 43.8886C47.8033 44.9486 46.1387 45.5267 44.4311 45.5267V45.9267C46.2288 45.9267 47.9806 45.3182 49.3975 44.2029L49.1501 43.8886ZM44.4311 45.5267C42.7192 45.5267 41.084 44.9491 39.7341 43.8885L39.4869 44.203C40.9057 45.3177 42.6276 45.9267 44.4311 45.9267V45.5267ZM39.7335 43.888L28.4856 35.1122L28.2396 35.4275L39.4875 44.2034L39.7335 43.888ZM28.5035 35.1279L28.1796 34.8065L27.8979 35.0905L28.2217 35.4118L28.5035 35.1279ZM28.1977 34.8271C27.6932 34.1662 27.7581 33.2154 28.3557 32.6178L28.0728 32.335C27.3355 33.0723 27.2521 34.2475 27.8798 35.0698L28.1977 34.8271ZM28.3586 32.6149C28.9256 32.0238 29.8752 31.9522 30.5674 32.4642L30.8053 32.1426C29.9598 31.5173 28.7835 31.5941 28.0699 32.338L28.3586 32.6149ZM30.5614 32.4595L41.6857 41.359L41.9356 41.0467L30.8113 32.1472L30.5614 32.4595ZM41.6842 41.3577C43.2133 42.6065 45.3741 42.6077 46.8825 41.3568L46.6271 41.0489C45.2679 42.1761 43.3202 42.1773 41.9372 41.0479L41.6842 41.3577ZM46.8796 41.3591L58.0262 32.4597L57.7766 32.1471L46.63 41.0465L46.8796 41.3591ZM58.0374 32.45C58.3698 32.1418 58.811 31.9842 59.2777 32.0087L59.2987 31.6092C58.7272 31.5793 58.1795 31.7728 57.7654 32.1567L58.0374 32.45ZM59.2682 32.008C59.7137 32.0527 60.1404 32.2566 60.4497 32.5881L60.7422 32.3153C60.3642 31.9101 59.8466 31.6641 59.3082 31.61L59.2682 32.008ZM60.4445 32.5823C60.9981 33.2245 60.9984 34.1539 60.4688 34.7966L60.7775 35.051C61.4295 34.2598 61.4298 33.1127 60.7474 32.3211L60.4445 32.5823Z" fill="url(#paint3_linear_1_1869)" fill-opacity="0.5" mask="url(#path-5-inside-2_1_1869)"/>
</g>
<defs>
<filter id="filter0_f_1_1869" x="0" y="0" width="62.2031" height="61.2738" filterUnits="userSpaceOnUse" color-interpolation-filters="sRGB">
<feFlood flood-opacity="0" result="BackgroundImageFix"/>
<feBlend mode="normal" in="SourceGraphic" in2="BackgroundImageFix" result="shape"/>
<feGaussianBlur stdDeviation="8" result="effect1_foregroundBlur_1_1869"/>
</filter>
<clipPath id="bgblur_0_1_1869_clip_path" transform="translate(-3.56152 -2.95435)"><path d="M65.3418 22.6155C62.9958 20.2645 59.8069 18.9543 56.4918 18.9543H32.0702C25.1459 18.9543 19.5615 24.5412 19.5615 31.4383V50.9677C19.5615 57.8648 25.1707 63.4516 32.0702 63.4516H56.4918C63.3914 63.4516 69.003 57.8648 69.003 50.9677V31.4383C69.003 28.1257 67.6903 24.9615 65.3418 22.6155Z"/>
</clipPath><filter id="filter2_d_1_1869" x="12.6592" y="16.8062" width="63.4033" height="43.9205" filterUnits="userSpaceOnUse" color-interpolation-filters="sRGB">
<feFlood flood-opacity="0" result="BackgroundImageFix"/>
<feColorMatrix in="SourceAlpha" type="matrix" values="0 0 0 0 0 0 0 0 0 0 0 0 0 0 0 0 0 0 127 0" result="hardAlpha"/>
<feOffset dx="5" dy="5"/>
<feGaussianBlur stdDeviation="5"/>
<feColorMatrix type="matrix" values="0 0 0 0 1 0 0 0 0 0.447059 0 0 0 0 0.368627 0 0 0 0.5 0"/>
<feBlend mode="normal" in2="BackgroundImageFix" result="effect1_dropShadow_1_1869"/>
<feBlend mode="normal" in="SourceGraphic" in2="effect1_dropShadow_1_1869" result="shape"/>
</filter>
<clipPath id="bgblur_1_1_1869_clip_path" transform="translate(-12.6592 -16.8062)"><path d="M60.6231 34.9238L60.4254 35.1215L49.2738 44.0457C47.892 45.1334 46.1838 45.7267 44.4311 45.7267C42.6734 45.7267 40.9949 45.1334 39.6105 44.0457L28.3626 35.2699L28.0387 34.9485C27.4726 34.2069 27.5468 33.1439 28.2143 32.4764C28.8545 31.809 29.9175 31.7348 30.6863 32.3034L41.8107 41.2028C43.2667 42.3919 45.321 42.3919 46.7548 41.2028L57.9014 32.3034C58.2747 31.9573 58.7691 31.7818 59.2882 31.809C59.7802 31.8584 60.2523 32.0834 60.5959 32.4517C61.214 33.1686 61.214 34.2069 60.6231 34.9238Z"/>
</clipPath><linearGradient id="paint0_linear_1_1869" x1="35.4256" y1="34.1726" x2="4.65195" y2="63.2535" gradientUnits="userSpaceOnUse">
<stop stop-color="#FFA78F"/>
<stop offset="1" stop-color="#F23E2C"/>
</linearGradient>
<linearGradient id="paint1_linear_1_1869" x1="27.4318" y1="24.1383" x2="55.0487" y2="62.1429" gradientUnits="userSpaceOnUse">
<stop stop-color="white" stop-opacity="0.25"/>
<stop offset="1" stop-color="white" stop-opacity="0"/>
</linearGradient>
<linearGradient id="paint2_linear_1_1869" x1="58.6946" y1="34.32" x2="21.6731" y2="37.2165" gradientUnits="userSpaceOnUse">
<stop stop-color="white"/>
<stop offset="1" stop-color="white" stop-opacity="0.2"/>
</linearGradient>
<linearGradient id="paint3_linear_1_1869" x1="59.6317" y1="39.0609" x2="27.4214" y2="42.2808" gradientUnits="userSpaceOnUse">
<stop stop-color="white"/>
<stop offset="1" stop-color="white" stop-opacity="0"/>
</linearGradient>
</defs>
</svg>
