<svg width="76" height="74" viewBox="0 0 76 74" fill="none" xmlns="http://www.w3.org/2000/svg">
<path d="M41.7288 17.5056L25.5018 21.7649C19.157 23.4303 16.0832 28.9139 17.8585 35.4043L21.9558 50.3834C23.7261 56.8554 29.187 60.0989 35.5318 58.4335L51.7588 54.1742C58.1037 52.5088 61.1587 47.0301 59.3884 40.5581L55.2911 25.5789C53.5158 19.0886 48.0736 15.8402 41.7288 17.5056Z" fill="url(#paint0_linear_1_1883)"/>
<g opacity="0.5" filter="url(#filter0_f_1_1883)">
<rect x="27.7324" y="52.5995" width="25.4629" height="26.5139" rx="12.7315" transform="rotate(-105 27.7324 52.5995)" fill="#8237FF"/>
</g>
<foreignObject x="2.89648" y="2.46609" width="94.1602" height="93.2592"><div xmlns="http://www.w3.org/1999/xhtml" style="backdrop-filter:blur(12px);clip-path:url(#bgblur_0_1_1883_clip_path);height:100%;width:100%"></div></foreignObject><path data-figma-bg-blur-radius="24" d="M59.5596 26.9661C63.4202 26.9661 66.6789 28.2962 68.9727 30.6477C71.2653 32.9984 72.5566 36.3316 72.5566 40.2708V57.9427C72.5565 61.8712 71.2652 65.1984 68.9727 67.5462C66.679 69.895 63.4203 71.2249 59.5596 71.2249H40.416C36.5554 71.2249 33.2913 69.8955 30.9922 67.5471C28.6941 65.1997 27.3966 61.8718 27.3965 57.9427V40.2708C27.3965 36.331 28.694 32.9982 30.9922 30.6477C33.2914 28.2964 36.5553 26.9661 40.416 26.9661H59.5596Z" fill="#BA90FF" fill-opacity="0.35" stroke="url(#paint1_linear_1_1883)" stroke-linecap="round" stroke-linejoin="round"/>
<foreignObject x="32.5439" y="23.1199" width="41.9805" height="49.2266"><div xmlns="http://www.w3.org/1999/xhtml" style="backdrop-filter:blur(7.5px);clip-path:url(#bgblur_1_1_1883_clip_path);height:100%;width:100%"></div></foreignObject><g filter="url(#filter2_d_1_1883)" data-figma-bg-blur-radius="15">
<mask id="path-4-inside-1_1_1883" fill="white">
<path fill-rule="evenodd" clip-rule="evenodd" d="M57.0186 57.1194C57.2857 57.273 57.5772 57.3465 57.8665 57.3465C58.4295 57.3465 58.9793 57.0631 59.2906 56.5548C59.4489 56.2946 59.5241 56.0086 59.5241 55.7262C59.5243 55.173 59.2356 54.6336 58.7165 54.3285L50.856 49.7365L50.856 39.7422C50.856 38.8467 50.1141 38.1199 49.2 38.1199C48.2858 38.1199 47.5439 38.8467 47.5439 39.7422V50.6579V50.6586C47.5439 51.2296 47.8509 51.7596 48.3499 52.0537L57.0186 57.1194Z"/>
</mask>
<path fill-rule="evenodd" clip-rule="evenodd" d="M57.0186 57.1194C57.2857 57.273 57.5772 57.3465 57.8665 57.3465C58.4295 57.3465 58.9793 57.0631 59.2906 56.5548C59.4489 56.2946 59.5241 56.0086 59.5241 55.7262C59.5243 55.173 59.2356 54.6336 58.7165 54.3285L50.856 49.7365L50.856 39.7422C50.856 38.8467 50.1141 38.1199 49.2 38.1199C48.2858 38.1199 47.5439 38.8467 47.5439 39.7422V50.6579V50.6586C47.5439 51.2296 47.8509 51.7596 48.3499 52.0537L57.0186 57.1194Z" fill="url(#paint2_linear_1_1883)"/>
<path d="M57.0186 57.1194L56.8168 57.4648L56.8192 57.4662L57.0186 57.1194ZM59.2906 56.5548L59.6317 56.7638L59.6324 56.7626L59.2906 56.5548ZM59.5241 55.7262L59.1241 55.7261V55.7262L59.5241 55.7262ZM58.7165 54.3285L58.9192 53.9836L58.9183 53.9831L58.7165 54.3285ZM50.856 49.7365H50.456V49.9661L50.6542 50.0819L50.856 49.7365ZM50.856 39.7422H51.256V39.7422H50.856ZM48.3499 52.0537L48.1467 52.3983L48.1481 52.3991L48.3499 52.0537ZM57.8665 56.9465C57.6456 56.9465 57.4231 56.8905 57.2179 56.7726L56.8192 57.4662C57.1484 57.6554 57.5088 57.7465 57.8665 57.7465V56.9465ZM58.9495 56.3459C58.7147 56.7294 58.2977 56.9465 57.8665 56.9465V57.7465C58.5613 57.7465 59.2439 57.3969 59.6317 56.7638L58.9495 56.3459ZM59.1241 55.7262C59.1241 55.9369 59.0681 56.1508 58.9488 56.3471L59.6324 56.7626C59.8296 56.4383 59.9241 56.0802 59.9241 55.7262L59.1241 55.7262ZM59.9241 55.7264C59.9243 55.0341 59.563 54.362 58.9192 53.9836L58.5139 54.6733C58.9082 54.9051 59.1242 55.3119 59.1241 55.7261L59.9241 55.7264ZM58.9183 53.9831L51.0577 49.3911L50.6542 50.0819L58.5148 54.6739L58.9183 53.9831ZM50.456 39.7422L50.456 49.7365H51.256L51.256 39.7422H50.456ZM49.2 38.5199C49.901 38.5199 50.456 39.0753 50.456 39.7422H51.256C51.256 38.618 50.3272 37.7199 49.2 37.7199V38.5199ZM47.9439 39.7422C47.9439 39.0753 48.4989 38.5199 49.2 38.5199V37.7199C48.0727 37.7199 47.1439 38.618 47.1439 39.7422H47.9439ZM47.9439 50.6579V39.7422H47.1439V50.6579H47.9439ZM47.9439 50.6586V50.6579H47.1439V50.6586H47.9439ZM48.553 51.7091C48.1733 51.4853 47.9439 51.0849 47.9439 50.6586H47.1439C47.1439 51.3744 47.5284 52.0338 48.1467 52.3983L48.553 51.7091ZM57.2204 56.774L48.5517 51.7084L48.1481 52.3991L56.8168 57.4647L57.2204 56.774Z" fill="url(#paint3_linear_1_1883)" mask="url(#path-4-inside-1_1_1883)"/>
</g>
<defs>
<filter id="filter0_f_1_1883" x="0" y="0" width="74.4844" height="73.7413" filterUnits="userSpaceOnUse" color-interpolation-filters="sRGB">
<feFlood flood-opacity="0" result="BackgroundImageFix"/>
<feBlend mode="normal" in="SourceGraphic" in2="BackgroundImageFix" result="shape"/>
<feGaussianBlur stdDeviation="12" result="effect1_foregroundBlur_1_1883"/>
</filter>
<clipPath id="bgblur_0_1_1883_clip_path" transform="translate(-2.89648 -2.46609)"><path d="M59.5596 26.9661C63.4202 26.9661 66.6789 28.2962 68.9727 30.6477C71.2653 32.9984 72.5566 36.3316 72.5566 40.2708V57.9427C72.5565 61.8712 71.2652 65.1984 68.9727 67.5462C66.679 69.895 63.4203 71.2249 59.5596 71.2249H40.416C36.5554 71.2249 33.2913 69.8955 30.9922 67.5471C28.6941 65.1997 27.3966 61.8718 27.3965 57.9427V40.2708C27.3965 36.331 28.694 32.9982 30.9922 30.6477C33.2914 28.2964 36.5553 26.9661 40.416 26.9661H59.5596Z"/>
</clipPath><filter id="filter2_d_1_1883" x="32.5439" y="23.1199" width="41.9805" height="49.2266" filterUnits="userSpaceOnUse" color-interpolation-filters="sRGB">
<feFlood flood-opacity="0" result="BackgroundImageFix"/>
<feColorMatrix in="SourceAlpha" type="matrix" values="0 0 0 0 0 0 0 0 0 0 0 0 0 0 0 0 0 0 127 0" result="hardAlpha"/>
<feOffset dx="5" dy="5"/>
<feGaussianBlur stdDeviation="5"/>
<feColorMatrix type="matrix" values="0 0 0 0 0.577356 0 0 0 0 0.359375 0 0 0 0 0.9375 0 0 0 0.5 0"/>
<feBlend mode="normal" in2="BackgroundImageFix" result="effect1_dropShadow_1_1883"/>
<feBlend mode="normal" in="SourceGraphic" in2="effect1_dropShadow_1_1883" result="shape"/>
</filter>
<clipPath id="bgblur_1_1_1883_clip_path" transform="translate(-32.5439 -23.1199)"><path fill-rule="evenodd" clip-rule="evenodd" d="M57.0186 57.1194C57.2857 57.273 57.5772 57.3465 57.8665 57.3465C58.4295 57.3465 58.9793 57.0631 59.2906 56.5548C59.4489 56.2946 59.5241 56.0086 59.5241 55.7262C59.5243 55.173 59.2356 54.6336 58.7165 54.3285L50.856 49.7365L50.856 39.7422C50.856 38.8467 50.1141 38.1199 49.2 38.1199C48.2858 38.1199 47.5439 38.8467 47.5439 39.7422V50.6579V50.6586C47.5439 51.2296 47.8509 51.7596 48.3499 52.0537L57.0186 57.1194Z"/>
</clipPath><linearGradient id="paint0_linear_1_1883" x1="33.6059" y1="19.6377" x2="43.2569" y2="56.4058" gradientUnits="userSpaceOnUse">
<stop stop-color="#BC94FF"/>
<stop offset="1" stop-color="#9F66FF"/>
</linearGradient>
<linearGradient id="paint1_linear_1_1883" x1="34.9261" y1="32.5059" x2="62.3957" y2="67.2364" gradientUnits="userSpaceOnUse">
<stop stop-color="white" stop-opacity="0.25"/>
<stop offset="1" stop-color="white" stop-opacity="0"/>
</linearGradient>
<linearGradient id="paint2_linear_1_1883" x1="58.6747" y1="41.5919" x2="45.3213" y2="41.8632" gradientUnits="userSpaceOnUse">
<stop stop-color="white"/>
<stop offset="1" stop-color="white" stop-opacity="0.2"/>
</linearGradient>
<linearGradient id="paint3_linear_1_1883" x1="49.451" y1="40.3599" x2="61.5874" y2="49.7259" gradientUnits="userSpaceOnUse">
<stop stop-color="white" stop-opacity="0.25"/>
<stop offset="1" stop-color="white" stop-opacity="0"/>
</linearGradient>
</defs>
</svg>
