<svg width="67" height="59" viewBox="0 0 67 59" fill="none" xmlns="http://www.w3.org/2000/svg">
<path d="M23.917 16.2816C15.8702 16.2816 9.21777 22.716 9.21777 30.6768C9.21777 34.6884 10.675 38.4126 13.078 41.5693C15.7044 45.0512 18.9696 48.085 22.6657 50.4663C23.5889 51.0582 24.3481 51.0166 25.1892 50.4663C28.8644 48.085 32.1296 45.0512 34.7787 41.5693C37.18 38.4126 38.6389 34.6884 38.6389 30.6768C38.6389 22.716 31.9865 16.2816 23.917 16.2816Z" fill="#4096FE"/>
<g opacity="0.5" filter="url(#filter0_f_1_1899)">
<path d="M23.953 24.3627C19.5993 24.3627 16 27.7953 16 32.0422C16 34.1823 16.7884 36.1691 18.0886 37.8531C19.5096 39.7106 21.2762 41.329 23.276 42.5994C23.7755 42.9152 24.1863 42.893 24.6414 42.5994C26.6299 41.329 28.3965 39.7106 29.8298 37.8531C31.129 36.1691 31.9184 34.1823 31.9184 32.0422C31.9184 27.7953 28.3191 24.3627 23.953 24.3627Z" fill="#004FFF"/>
</g>
<foreignObject x="-4.95801" y="-24" width="94.2002" height="102"><div xmlns="http://www.w3.org/1999/xhtml" style="backdrop-filter:blur(12px);clip-path:url(#bgblur_0_1_1899_clip_path);height:100%;width:100%"></div></foreignObject><path data-figma-bg-blur-radius="24" d="M42.125 0.5C54.5118 0.500026 64.7421 10.3782 64.7422 22.626C64.7422 28.7781 62.504 34.4775 58.8408 39.293C54.8262 44.5697 49.8777 49.1673 44.3076 52.7764L44.3066 52.7754C43.6234 53.222 42.9319 53.4906 42.1934 53.5C41.453 53.5094 40.7261 53.2585 39.9756 52.7773L39.9746 52.7764C34.3728 49.1673 29.4245 44.5697 25.4434 39.292C21.7776 34.4765 19.542 28.7777 19.542 22.626C19.5421 10.3787 29.7718 0.5 42.125 0.5Z" fill="#3EA0FE" fill-opacity="0.35" stroke="url(#paint0_linear_1_1899)" stroke-linecap="round" stroke-linejoin="round"/>
<foreignObject x="19.6865" y="1.01797" width="44.5898" height="44.4374"><div xmlns="http://www.w3.org/1999/xhtml" style="backdrop-filter:blur(7.5px);clip-path:url(#bgblur_1_1_1899_clip_path);height:100%;width:100%"></div></foreignObject><g filter="url(#filter2_d_1_1899)" data-figma-bg-blur-radius="15">
<mask id="path-4-inside-1_1_1899" fill="white">
<path d="M41.9645 30.4554C37.9558 30.4554 34.6865 27.3042 34.6865 23.2978C34.6865 19.3225 37.9558 16.018 41.9645 16.018C45.9758 16.018 49.2765 19.3225 49.2765 23.2978C49.2765 27.3042 45.9758 30.4554 41.9645 30.4554Z"/>
</mask>
<path d="M41.9645 30.4554C37.9558 30.4554 34.6865 27.3042 34.6865 23.2978C34.6865 19.3225 37.9558 16.018 41.9645 16.018C45.9758 16.018 49.2765 19.3225 49.2765 23.2978C49.2765 27.3042 45.9758 30.4554 41.9645 30.4554Z" fill="url(#paint1_linear_1_1899)"/>
<path d="M41.9645 30.2554C38.062 30.2554 34.8865 27.1895 34.8865 23.2978H34.4865C34.4865 27.419 37.8497 30.6554 41.9645 30.6554V30.2554ZM34.8865 23.2978C34.8865 19.4323 38.067 16.218 41.9645 16.218V15.818C37.8447 15.818 34.4865 19.2127 34.4865 23.2978H34.8865ZM41.9645 16.218C45.8658 16.218 49.0765 19.4334 49.0765 23.2978H49.4765C49.4765 19.2115 46.0857 15.818 41.9645 15.818V16.218ZM49.0765 23.2978C49.0765 27.1883 45.8708 30.2554 41.9645 30.2554V30.6554C46.0807 30.6554 49.4765 27.4201 49.4765 23.2978H49.0765Z" fill="url(#paint2_linear_1_1899)" fill-opacity="0.5" mask="url(#path-4-inside-1_1_1899)"/>
</g>
<defs>
<filter id="filter0_f_1_1899" x="0" y="8.3627" width="47.918" height="50.4653" filterUnits="userSpaceOnUse" color-interpolation-filters="sRGB">
<feFlood flood-opacity="0" result="BackgroundImageFix"/>
<feBlend mode="normal" in="SourceGraphic" in2="BackgroundImageFix" result="shape"/>
<feGaussianBlur stdDeviation="8" result="effect1_foregroundBlur_1_1899"/>
</filter>
<clipPath id="bgblur_0_1_1899_clip_path" transform="translate(4.95801 24)"><path d="M42.125 0.5C54.5118 0.500026 64.7421 10.3782 64.7422 22.626C64.7422 28.7781 62.504 34.4775 58.8408 39.293C54.8262 44.5697 49.8777 49.1673 44.3076 52.7764L44.3066 52.7754C43.6234 53.222 42.9319 53.4906 42.1934 53.5C41.453 53.5094 40.7261 53.2585 39.9756 52.7773L39.9746 52.7764C34.3728 49.1673 29.4245 44.5697 25.4434 39.292C21.7776 34.4765 19.542 28.7777 19.542 22.626C19.5421 10.3787 29.7718 0.5 42.125 0.5Z"/>
</clipPath><filter id="filter2_d_1_1899" x="19.6865" y="1.01797" width="44.5898" height="44.4374" filterUnits="userSpaceOnUse" color-interpolation-filters="sRGB">
<feFlood flood-opacity="0" result="BackgroundImageFix"/>
<feColorMatrix in="SourceAlpha" type="matrix" values="0 0 0 0 0 0 0 0 0 0 0 0 0 0 0 0 0 0 127 0" result="hardAlpha"/>
<feOffset dx="5" dy="5"/>
<feGaussianBlur stdDeviation="5"/>
<feColorMatrix type="matrix" values="0 0 0 0 0.15375 0 0 0 0 0.522433 0 0 0 0 0.9 0 0 0 0.5 0"/>
<feBlend mode="normal" in2="BackgroundImageFix" result="effect1_dropShadow_1_1899"/>
<feBlend mode="normal" in="SourceGraphic" in2="effect1_dropShadow_1_1899" result="shape"/>
</filter>
<clipPath id="bgblur_1_1_1899_clip_path" transform="translate(-19.6865 -1.01797)"><path d="M41.9645 30.4554C37.9558 30.4554 34.6865 27.3042 34.6865 23.2978C34.6865 19.3225 37.9558 16.018 41.9645 16.018C45.9758 16.018 49.2765 19.3225 49.2765 23.2978C49.2765 27.3042 45.9758 30.4554 41.9645 30.4554Z"/>
</clipPath><linearGradient id="paint0_linear_1_1899" x1="27.0779" y1="7.05807" x2="60.9655" y2="42.733" gradientUnits="userSpaceOnUse">
<stop stop-color="white" stop-opacity="0.25"/>
<stop offset="1" stop-color="white" stop-opacity="0"/>
</linearGradient>
<linearGradient id="paint1_linear_1_1899" x1="48.2421" y1="18.6251" x2="31.9906" y2="19.1605" gradientUnits="userSpaceOnUse">
<stop stop-color="white"/>
<stop offset="1" stop-color="white" stop-opacity="0.2"/>
</linearGradient>
<linearGradient id="paint2_linear_1_1899" x1="36.2582" y1="20.861" x2="48.6471" y2="20.9301" gradientUnits="userSpaceOnUse">
<stop stop-color="white"/>
<stop offset="1" stop-color="white" stop-opacity="0"/>
</linearGradient>
</defs>
</svg>
